<?xml version="1.0" encoding="utf-8"?>
<!-- Generator: Adobe Illustrator 21.0.0, SVG Export Plug-In . SVG Version: 6.00 Build 0)  -->
<svg version="1.1" id="Layer_1" xmlns="http://www.w3.org/2000/svg" xmlns:xlink="http://www.w3.org/1999/xlink" x="0px" y="0px"
	 width="80px" height="80px" viewBox="0 0 64 64" style="enable-background:new 0 0 64 64;" xml:space="preserve">
<style type="text/css">
	.st0{fill:none;stroke:#303133;stroke-width:2;stroke-miterlimit:10;}
</style>
<path class="st0" d="M12,19v45"/>
<path class="st0" d="M52,0v45"/>
<path class="st0" d="M32,38v26"/>
<path class="st0" d="M32,0v26"/>
<path class="st0" d="M12,7c3.3,0,6,2.7,6,6s-2.7,6-6,6s-6-2.7-6-6S8.7,7,12,7z"/>
<path class="st0" d="M52,45c3.3,0,6,2.7,6,6s-2.7,6-6,6s-6-2.7-6-6S48.7,45,52,45z"/>
<path class="st0" d="M32,26c3.3,0,6,2.7,6,6s-2.7,6-6,6s-6-2.7-6-6S28.7,26,32,26z"/>
<path class="st0" d="M12,0v7"/>
<path class="st0" d="M52,57v7"/>
</svg>
